<svg width="603" height="594" viewBox="0 0 603 594" fill="none" xmlns="http://www.w3.org/2000/svg">
  <path d="M48.5271 284.271C50.3831 286.126 52.8147 287.055 55.2463 287.055C57.6779 287.055 60.1075 286.126 61.9655 284.271L110.114 236.121C111.896 234.341 112.898 231.924 112.898 229.402C112.898 226.881 111.896 224.466 110.114 222.682L87.1105 199.681V9.56555C87.1105 4.31332 82.8581 0.0628967 77.6073 0.0628967H9.50311C4.25432 0.0628967 0 4.31332 0 9.56555V231.81C0 234.331 1.00208 236.746 2.78397 238.528L48.5271 284.271Z" fill="#24265D"/>
  <path d="M67.532 303.277L115.681 351.427C117.463 353.207 119.88 354.209 122.4 354.209C124.922 354.209 127.339 353.207 129.12 351.427L464.259 16.2211C466.975 13.5026 467.792 9.4151 466.319 5.86499C464.845 2.31488 461.383 3.05176e-05 457.541 3.05176e-05H361.243C358.724 3.05176e-05 356.304 1.00183 354.522 2.78418L67.532 289.84C63.8202 293.553 63.8202 299.569 67.532 303.277Z" fill="#24265D"/>
  <path d="M597.033 575.974L333.077 312.011C329.512 308.446 323.202 308.446 319.64 312.011L271.488 360.163C267.777 363.874 267.777 369.89 271.488 373.601L488.156 590.269C489.938 592.054 492.358 593.056 494.875 593.056H591.175C591.211 593.048 591.26 593.048 591.297 593.056C596.551 593.056 600.802 588.798 600.802 583.553C600.802 580.458 599.321 577.703 597.033 575.974Z" fill="#24265D"/>
  <path d="M126.774 379.991C123.069 376.28 117.065 376.288 113.352 379.971L98.9057 394.349C97.1143 396.139 96.1055 398.559 96.1055 401.09V583.553C96.1055 588.798 100.359 593.056 105.609 593.056H173.714C178.964 593.056 183.217 588.798 183.217 583.553V440.369C183.217 437.85 182.215 435.433 180.433 433.648L126.774 379.991Z" fill="#24265D"/>
  <path d="M461.078 575.974L265.095 379.991C261.531 376.428 255.221 376.428 251.658 379.991L203.512 428.139C199.799 431.849 199.799 437.865 203.512 441.576L352.199 590.269C353.982 592.054 356.401 593.056 358.92 593.056H455.218C455.262 593.048 455.306 593.048 455.34 593.056C460.592 593.056 464.845 588.798 464.845 583.553C464.845 580.458 463.366 577.703 461.078 575.974Z" fill="#F68712"/>
  <path d="M106.946 360.163L58.7978 312.011C55.0819 308.298 49.0715 308.298 45.3624 312.004L2.78776 354.513C1.00208 356.295 0 358.715 0 361.239V583.553C0 588.798 4.25432 593.056 9.50311 593.056H77.6073C82.8581 593.056 87.1105 588.798 87.1105 583.553V393.435L106.946 373.601C110.659 369.89 110.659 363.874 106.946 360.163Z" fill="#F68712"/>
  <path d="M116.504 216.295C118.286 218.075 120.702 219.076 123.222 219.076H123.226C125.747 219.076 128.166 218.075 129.949 216.29L180.44 165.735C182.219 163.952 183.217 161.538 183.217 159.019V9.5665C183.217 4.31427 178.964 0.0638428 173.714 0.0638428H105.609C100.359 0.0638428 96.1055 4.31427 96.1055 9.5665V191.959C96.1055 194.481 97.1075 196.898 98.8904 198.68L116.504 216.295Z" fill="#F68712"/>
  <path d="M602.277 5.92825C600.803 2.37573 597.341 0.063324 593.499 0.063324H497.199C494.682 0.063324 492.263 1.06512 490.48 2.84503L135.512 357.817C133.729 359.599 132.727 362.016 132.727 364.535C132.727 367.054 133.729 369.475 135.512 371.254L183.662 419.402C185.517 421.26 187.949 422.184 190.38 422.184C192.812 422.184 195.244 421.26 197.099 419.402L600.215 16.2844C602.931 13.5659 603.748 9.47836 602.277 5.92825Z" fill="#F68712"/>
</svg>
